<svg version="1.1" id="Layer_1" xmlns="http://www.w3.org/2000/svg" x="0" y="0" viewBox="0 0 1000 1000" style="enable-background:new 0 0 1000 1000" xml:space="preserve">
    <style>
        .st1{fill:#212223}.st3{fill:#444f51}
    </style>
    <path d="m975 540.12-8.34 14.95-174.98 312.47c-44.31 78.98-141.28 121.31-237.02 103.37-164.39-30.52-399.85-72.85-437.03-70.49-9.04.63-17.55-6.61-25.37-19.04C49.85 814.2 25 592.52 25 592.52l111.04-79.14 413.57-294.85 167-118.95 154.13 115.33L975 540.12z" style="fill:#1b191d"/>
    <path class="st1" d="M211.63 573.32c4.52 58.06-12.34 113.28-38.05 166.78-22.94 47.99-53.17 94.88-81.32 141.29C49.85 814.2 25 592.52 25 592.52s4-18.72 12.68-49.41c5.04-17.3 11.64-38.55 19.81-62.46 27.63 7.87 54.21 18.72 78.54 32.73 28.51 15.73 54.05 35.87 75.6 59.94zM975 540.12l-8.34 14.95c-64.64-43.58-129.46-87.01-194.1-130.28-15.29-10.38-30.76-20.77-46.05-31-69.69-47.04-145.27-106.2-176.9-175.27-13.73-30.05-19.11-61.99-12.16-95.66 4.34-20.61 13.38-39.81 26.07-56.96 19.46 17.31 29.19 33.67 29.19 33.67h123.9L870.74 214.9 975 540.12z"/>
    <path d="M801.23 372.25s-10.77 20.77-28.67 52.55c-1.04 1.89-2.26 3.78-3.3 5.82-37.89 67.5-103.91 178.58-165.08 251.11-43.44 51.61-133.98 74.42-218.08 84.02-95.05 11.01-181.59 5.19-181.59 5.19l-30.93-30.84L25 592.52s4-18.72 12.68-49.41c5.04-17.3 11.64-38.55 19.81-62.46C95.38 370.67 169.06 204.36 293.3 99.58c2.44-2.05 5.04-4.25 7.48-6.14C433.53-14.33 521.29 28.3 563.51 65.91c19.46 17.31 29.19 33.67 29.19 33.67h123.9l84.63 272.67z" style="fill:#394345"/>
    <path class="st3" d="M301.64 738.37c26.59 13.69 55.09 22.66 84.45 27.38-95.05 11.01-181.59 5.19-181.59 5.19L25 592.52s4-18.72 12.68-49.41c27.28 11.17 53 26.59 75.24 43.74 64.3 49.41 115.39 113.76 188.72 151.52zM801.23 372.25s-12.16 23.29-31.97 58.37c-11.12-92.04-61.52-181.73-140.23-241.83-90.19-68.91-209.74-99.91-328.25-95.35 193.93-157.5 291.93 6.14 291.93 6.14h123.9l84.62 272.67z"/>
</svg>
