<?xml version="1.0" encoding="iso-8859-1"?>
<!-- Uploaded to: SVG Repo, www.svgrepo.com, Generator: SVG Repo Mixer Tools -->
<svg version="1.1" id="Layer_1" xmlns="http://www.w3.org/2000/svg" xmlns:xlink="http://www.w3.org/1999/xlink" 
	 viewBox="0 0 512 512" xml:space="preserve">
<g>
	<polygon style="fill:#7E8488;" points="454.194,278.022 454.194,338.581 424.024,338.581 399.14,338.581 366.438,305.879 
		338.581,278.022 421.161,278.022 	"/>
	<polygon style="fill:#7E8488;" points="454.194,173.419 454.194,233.979 421.161,233.979 338.581,233.979 366.438,206.121 
		399.14,173.419 424.024,173.419 	"/>
</g>
<g>
	<polygon style="fill:#F1F2F2;" points="465.204,233.979 465.204,278.022 454.194,278.022 421.161,278.022 421.161,233.979 
		454.194,233.979 	"/>
	<polygon style="fill:#F1F2F2;" points="300.043,233.979 300.043,278.022 267.011,278.022 239.484,256 267.011,233.979 	"/>
</g>
<polygon style="fill:#00B4D7;" points="421.161,233.979 421.161,278.022 338.581,278.022 305.548,278.022 300.043,278.022 
	300.043,233.979 305.548,233.979 338.581,233.979 "/>
<g>
	<path style="fill:#AFB6BB;" d="M305.548,280.003c-8.919,18.388-27.747,31.05-49.548,31.05c-30.39,0-55.054-24.664-55.054-55.054
		S225.61,200.946,256,200.946c21.801,0,40.63,12.662,49.548,31.05v1.982h-5.505h-33.032L239.484,256l27.527,22.022h33.032h5.505
		V280.003z"/>
	<path style="fill:#AFB6BB;" d="M366.438,305.879c-19.049,41.951-61.33,71.24-110.438,71.24
		c-66.945,0-121.118-54.173-121.118-121.118c0-8.368,0.881-16.516,2.422-24.444c11.341-55.164,60.119-96.674,118.696-96.674
		c49.108,0,91.389,29.289,110.438,71.24l32.702-32.702h24.884C393.524,111.429,329.772,68.817,256,68.817
		c-97.996,0-178.374,75.314-186.412,171.217c-0.551,5.285-0.771,10.57-0.771,15.966c0,103.391,83.792,187.183,187.183,187.183
		c73.772,0,137.524-42.612,168.024-104.602H399.14L366.438,305.879z"/>
</g>
<g>
	<path style="fill:#FFD311;" d="M366.438,206.121l-27.857,27.857h-33.032v-1.982c-8.919-18.388-27.747-31.05-49.548-31.05
		c-30.39,0-55.054,24.664-55.054,55.054S225.61,311.054,256,311.054c21.801,0,40.63-12.662,49.548-31.05v-1.982h33.032
		l27.857,27.857c-19.049,41.951-61.33,71.24-110.438,71.24c-66.945,0-121.118-54.173-121.118-121.118
		c0-8.368,0.881-16.516,2.422-24.444c11.341-55.164,60.119-96.674,118.696-96.674C305.108,134.882,347.389,164.17,366.438,206.121z"
		/>
	<path style="fill:#FFD311;" d="M256,8.258c136.864,0,247.742,110.878,247.742,247.742S392.864,503.742,256,503.742
		S8.258,392.864,8.258,256S119.136,8.258,256,8.258z M465.204,278.022v-44.043h-11.011v-60.559h-30.169
		C393.524,111.429,329.772,68.817,256,68.817c-97.996,0-178.374,75.314-186.412,171.217c-0.551,5.285-0.771,10.57-0.771,15.966
		c0,103.391,83.792,187.183,187.183,187.183c73.772,0,137.524-42.612,168.024-104.602h30.169v-60.559H465.204z"/>
</g>
<path style="fill:#A0A7AB;" d="M69.588,240.034c-0.551,5.285-0.771,10.57-0.771,15.966c0,103.391,83.792,187.183,187.183,187.183
	c50.004,0,95.366-19.62,128.929-51.54c-22.255-9.469-43.508-20.797-63.701-33.644c-18.836,12.074-41.203,19.12-65.229,19.12
	c-66.945,0-121.118-54.173-121.118-121.118c0-8.368,0.881-16.516,2.422-24.444c3.961-19.268,12.569-36.803,24.487-51.552
	c-10.498-21.417-19.282-43.816-26.233-67.021C98.666,144.103,73.858,189.091,69.588,240.034z"/>
<path style="fill:#FABB1B;" d="M256,443.183c-103.391,0-187.183-83.792-187.183-187.183c0-5.395,0.22-10.68,0.771-15.966
	c4.269-50.942,29.078-95.931,65.969-127.052c-6.298-21.026-11.053-42.712-14.169-64.937C53.315,92.19,8.258,168.792,8.258,256
	c0,136.864,110.878,247.742,247.742,247.742c77.301,0,146.298-35.382,191.725-90.828c-21.622-5.533-42.593-12.676-62.795-21.271
	C351.366,423.563,306.004,443.183,256,443.183z"/>
<path style="fill:#AFB6BB;" d="M366.438,305.879c-9.73,21.427-25.544,39.515-45.21,52.121
	c20.193,12.847,41.444,24.175,63.701,33.644c15.952-15.172,29.269-33.091,39.096-53.062H399.14L366.438,305.879z"/>
<path d="M256,495.484c-63.987,0-124.132-24.905-169.356-70.129C41.421,380.132,16.516,319.988,16.516,256
	c0-38.322,8.769-74.925,26.062-108.793c16.5-32.315,40.597-60.948,69.684-82.802l-9.921-13.204
	c-31.083,23.354-56.836,53.955-74.473,88.496C9.377,175.912,0,215.042,0,256c0,68.399,26.624,132.692,74.966,181.034
	C123.308,485.376,187.601,512,256,512c58.462,0,115.624-20.206,160.958-56.895l-10.39-12.839
	C364.163,476.584,310.691,495.484,256,495.484z"/>
<path d="M437.034,74.966C388.692,26.623,324.399,0,256,0c-48.796,0-96.246,13.77-137.217,39.823l8.863,13.937
	C165.963,29.394,210.347,16.516,256,16.516c63.987,0,124.132,24.905,169.356,70.129c45.222,45.223,70.128,105.367,70.128,169.355
	c0,33.932-6.943,66.714-20.636,97.436c-13.232,29.685-32.072,55.992-56.001,78.188l11.232,12.109
	c25.572-23.722,45.711-51.84,59.854-83.574C504.575,327.308,512,292.264,512,256C512,187.601,485.376,123.308,437.034,74.966z"/>
<path d="M429.065,165.161c-15.898-30.264-39.447-55.872-68.398-74.26C329.415,71.051,293.222,60.559,256,60.559
	c-49.297,0-96.369,18.41-132.545,51.838c-35.947,33.218-57.996,78.271-62.09,126.867c-0.543,5.241-0.806,10.717-0.806,16.736
	c0,107.767,87.674,195.441,195.441,195.441c37.222,0,73.415-10.492,104.667-30.342c28.951-18.388,52.499-43.997,68.398-74.26h33.387
	V286.28h11.011V225.72h-11.011v-60.559H429.065z M445.935,225.72h-87.418l44.043-44.043h43.375V225.72z M456.946,269.763h-27.527
	v-27.527h27.527V269.763z M311.595,225.72c-11.109-20.449-32.139-33.032-55.595-33.032c-34.911,0-63.312,28.401-63.312,63.312
	s28.401,63.312,63.312,63.312c23.457,0,44.488-12.583,55.595-33.032h23.564l21.275,21.275
	C337.126,344.971,298.313,368.86,256,368.86c-62.232,0-112.86-50.629-112.86-112.86c0-7.427,0.763-15.12,2.254-22.781
	c10.73-52.195,57.247-90.079,110.606-90.079c42.315,0,81.127,23.886,100.436,61.306L335.16,225.72H311.595z M269.908,269.763
	L252.703,256l17.204-13.763h21.877v27.527H269.908z M291.679,286.28c-8.749,10.379-21.616,16.516-35.679,16.516
	c-25.804,0-46.796-20.992-46.796-46.796s20.992-46.796,46.796-46.796c14.063,0,26.93,6.137,35.679,16.516h-27.565L226.264,256
	l37.849,30.28H291.679z M308.301,269.763v-27.527h104.602v27.527H308.301z M351.812,407.158
	c-28.6,18.166-61.732,27.767-95.812,27.767c-98.66,0-178.925-80.265-178.925-178.925c0-5.475,0.238-10.416,0.727-15.11l0.015-0.165
	c3.73-44.502,23.919-85.769,56.847-116.198C167.779,93.927,210.87,77.075,256,77.075c34.08,0,67.212,9.601,95.812,27.767
	c24.027,15.261,43.987,35.951,58.357,60.319H395.72l-27.108,27.108c-22.865-40.221-65.871-65.646-112.611-65.646
	c-29.997,0-59.231,10.49-82.317,29.54c-22.761,18.781-38.554,44.966-44.485,73.817c-1.708,8.782-2.574,17.537-2.574,26.02
	c0,71.339,58.038,129.376,129.376,129.376c46.741,0,89.746-25.425,112.61-65.646l27.108,27.108h14.449
	C395.799,371.207,375.838,391.897,351.812,407.158z M445.935,330.323H402.56l-44.043-44.043h87.419V330.323z"/>
<g>
	<rect x="410.151" y="198.194" style="fill:#FFFFFF;" width="22.022" height="16.516"/>
	<rect x="410.151" y="297.29" style="fill:#FFFFFF;" width="22.022" height="16.516"/>
</g>
<path d="M219.531,114.689L215.393,98.7c-29.08,7.527-55.499,22.974-76.399,44.671c-20.969,21.769-35.387,48.808-41.68,78.121
	c-1.538,6.865-2.568,13.571-3.15,20.568c-0.39,5.221-0.573,9.65-0.573,13.94h16.516c0-3.868,0.167-7.905,0.522-12.637
	c0.514-6.167,1.431-12.139,2.819-18.332c5.663-26.375,18.609-50.651,37.443-70.202C169.672,135.331,193.407,121.451,219.531,114.689
	z"/>
<g>
	<path style="fill:#FFFFFF;" d="M256,401.892v16.516c50.086,0,96.596-22.579,127.606-61.945l-12.974-10.219
		C342.775,381.61,300.992,401.892,256,401.892z"/>
	<rect x="93.591" y="267.011" style="fill:#FFFFFF;" width="16.516" height="22.022"/>
</g>
<rect x="222.968" y="401.892" width="22.022" height="16.516"/>
</svg>